<?xml version="1.0" encoding="UTF-8"?>
<svg version="1.1" xmlns="http://www.w3.org/2000/svg" width="512" height="512">
<path d="M0 0 C4.8846525 2.26787438 7.73212562 5.1153475 10 10 C10.80576863 15.98570983 11.1548125 21.21944805 7.453125 26.28613281 C4.12536363 30.21101265 0.42268869 33.7769128 -3.25 37.375 C-4.51070313 38.62216797 -4.51070313 38.62216797 -5.796875 39.89453125 C-7.86010502 41.93431547 -9.92787123 43.96926286 -12 46 C-10.69675781 47.10794922 -10.69675781 47.10794922 -9.3671875 48.23828125 C-2.27643547 54.41830391 3.42722415 60.09236496 7 69 C7.249075 69.60173324 7.49815 70.20346648 7.75477272 70.82343405 C10.19837075 77.29659971 10.42514757 83.21847953 10.38768005 90.08699036 C10.39575836 91.87442084 10.39575836 91.87442084 10.40399987 93.69796103 C10.41578169 96.98382747 10.41423152 100.26936603 10.40683305 103.55523503 C10.40208647 107.10751039 10.41462444 110.65973234 10.42485046 114.21199036 C10.44201547 121.16313489 10.44288316 128.11418893 10.43763756 135.06534914 C10.43358987 140.71816837 10.43504653 146.37096095 10.44038582 152.02377892 C10.44113424 152.82950031 10.44188266 153.63522171 10.44265376 154.46535891 C10.44418531 156.10240033 10.44572365 157.73944175 10.44726873 159.37648316 C10.46098579 174.71664431 10.45556197 190.05675441 10.44408352 205.39691439 C10.43415486 219.41418212 10.44708686 233.43131779 10.47101771 247.44856516 C10.49543321 261.85883989 10.50501039 276.26905318 10.49836498 290.67934817 C10.49487783 298.76264358 10.4970713 306.84583749 10.51461601 314.9291172 C10.52936881 321.81119731 10.52993355 328.69310446 10.5125451 335.57518128 C10.50405736 339.08257528 10.50183031 342.58966071 10.51719666 346.09703827 C10.5304255 349.90900064 10.51884041 353.7201316 10.50120544 357.53205872 C10.51081045 358.62712244 10.52041546 359.72218617 10.53031152 360.85043365 C10.39754664 374.85829447 5.11058896 385.59351025 -4.3125 395.75 C-15.35490922 406.20085158 -27.38336632 408.49207157 -42.12702942 408.14974976 C-43.54057538 408.1286589 -44.95414409 408.10904978 -46.36772937 408.09078276 C-49.42649337 408.0484216 -52.48488782 407.99646678 -55.54336739 407.93703651 C-60.52269515 407.84064041 -65.50220965 407.76643057 -70.48196411 407.69599915 C-75.85148714 407.61936347 -81.22098192 407.54187646 -86.59039557 407.45787787 C-99.93086333 407.2507167 -113.27108808 407.10649664 -126.61271667 406.99942017 C-127.58054985 406.99156004 -128.54838303 406.98369991 -129.54554448 406.9756016 C-138.53213732 406.9029482 -147.51875868 406.83416951 -156.50539362 406.76694751 C-162.66238763 406.72060279 -168.81935976 406.67192365 -174.97631836 406.62109375 C-176.5098926 406.60847669 -176.5098926 406.60847669 -178.07444813 406.59560473 C-194.57614063 406.45613056 -211.07381373 406.19449859 -227.57317821 405.88955848 C-244.57241147 405.57848478 -261.56895081 405.4117248 -278.5709936 405.37170374 C-288.09536456 405.34508648 -297.6095365 405.25380112 -307.13065529 404.99448776 C-351.76515753 402.10425539 -351.76515753 402.10425539 -390.76690573 419.87457192 C-398.40544263 427.21918298 -404.94972572 435.45599766 -410.64705008 444.37990439 C-412.95871345 447.14801549 -415.28431418 447.91427719 -418.8046875 448.3359375 C-429.29536144 448.46940663 -429.29536144 448.46940663 -434 444 C-438.41415841 439.35351746 -438.46758261 435.11206934 -438.53125 429 C-437.32035321 422.16199461 -431.7315375 417.44617036 -426.99092102 412.73923874 C-426.28176383 412.02717467 -425.57260664 411.31511059 -424.84195983 410.58146882 C-422.45836319 408.19055851 -420.06769189 405.80685081 -417.67700195 403.42303467 C-415.9518098 401.69553865 -414.22705398 399.96760679 -412.50269794 398.23927617 C-408.74947989 394.47943979 -404.99316515 390.72273804 -401.2340889 386.96876144 C-395.64434192 381.3865771 -390.06032034 375.79869162 -384.47741243 370.20966836 C-374.506922 360.22864337 -364.53071219 350.25335056 -354.55206618 340.28047993 C-345.8209103 331.55435273 -337.09161262 322.82637202 -328.36416626 314.09653473 C-327.78552876 313.51774446 -327.20689127 312.9389542 -326.6107193 312.34262483 C-324.26193696 309.99321982 -321.91316168 307.64380775 -319.56439804 305.29438404 C-297.52790499 283.25177188 -275.48558141 261.2149984 -253.44064803 239.18082783 C-233.84582873 219.59550237 -214.25618978 200.00500955 -194.67089844 180.41015625 C-172.67430296 158.40285751 -150.67448758 136.39878589 -128.6694479 114.39993024 C-126.32490347 112.05602727 -123.98036694 109.71211641 -121.63583374 107.36820221 C-121.05853253 106.79105916 -120.48123133 106.2139161 -119.88643614 105.61928387 C-111.1597631 96.894888 -102.43556469 88.16802272 -93.71255493 79.43996429 C-83.79797557 69.5196753 -73.87984784 59.60294949 -63.95697999 49.69095084 C-58.40017446 44.14003098 -52.84615211 38.58636001 -47.29605452 33.02873302 C-43.15911529 28.88679961 -39.01699771 24.75007309 -34.87278688 20.61541453 C-33.19142172 18.93629471 -31.51176348 17.25546371 -29.83393443 15.5728105 C-27.56353976 13.29638624 -25.28715268 11.02613243 -23.00907898 8.7573967 C-22.02063155 7.76192577 -22.02063155 7.76192577 -21.0122155 6.74634433 C-20.40508283 6.1442187 -19.79795017 5.54209308 -19.17241955 4.92172122 C-18.65233922 4.40177641 -18.1322589 3.8818316 -17.59641856 3.34613089 C-12.39320632 -1.04131793 -6.49375144 -0.69638085 0 0 Z M-50.28125 82.3046875 C-51.34378786 83.38588439 -52.40856113 84.46488861 -53.47546387 85.54177856 C-56.27312171 88.37755817 -59.0394576 91.2420674 -61.80029297 94.11364746 C-64.62457009 97.04035635 -67.47749043 99.93884239 -70.328125 102.83984375 C-75.91382023 108.53267991 -81.46673773 114.2561896 -87 120 C-86.5851384 120.54795227 -86.17027679 121.09590454 -85.74284363 121.66046143 C-84.92883842 122.73973907 -84.92883842 122.73973907 -84.09838867 123.84082031 C-83.29047127 124.91024872 -83.29047127 124.91024872 -82.4662323 126.00128174 C-73.68609622 137.97006618 -71.32699735 152.69329045 -73.46875 167.16796875 C-76.49718163 181.10235953 -84.45699415 192.76715037 -96.1875 200.875 C-108.90938327 208.32840252 -123.29203853 209.93752194 -137.6484375 207.33984375 C-144.38286035 205.49227644 -149.9235261 202.53687977 -155.66015625 198.5859375 C-158.19561097 196.79249665 -158.19561097 196.79249665 -162 195 C-175.2 208.2 -188.4 221.4 -202 235 C-200.55071233 238.62321918 -199.47373428 241.02826664 -197.34765625 244.1171875 C-196.82365234 244.88192383 -196.29964844 245.64666016 -195.75976562 246.43457031 C-194.91961914 247.64258301 -194.91961914 247.64258301 -194.0625 248.875 C-193.48564453 249.7112793 -192.90878906 250.54755859 -192.31445312 251.40917969 C-187.41651157 258.47651687 -182.36245822 265.42099779 -177.234375 272.32226562 C-175.12337844 275.19148405 -173.06343666 278.09644984 -171 281 C-167.15514146 278.20373925 -164.21608024 275.05930619 -161.15234375 271.47265625 C-158.49714962 268.42231526 -155.75252153 265.46235882 -153 262.5 C-149.21324734 258.41740729 -145.48231407 254.30228498 -141.83984375 250.08984375 C-138.96536275 246.8247751 -136.00988186 243.6338312 -133.05761719 240.43920898 C-130.36218745 237.5151241 -127.74763672 234.54264586 -125.1875 231.5 C-121.6056418 227.46410344 -118.77402271 224.36731887 -113.16796875 223.625 C-106.72282821 223.37069113 -103.11729492 223.78105984 -98 228 C-95.7858224 230.57992207 -93.8627769 233.32546585 -91.9375 236.125 C-90.79064143 237.75279926 -89.64349806 239.38039788 -88.49609375 241.0078125 C-87.91585449 241.83829102 -87.33561523 242.66876953 -86.73779297 243.52441406 C-84.0321114 247.37881292 -81.26487792 251.18796599 -78.5 255 C-77.41633346 256.49975929 -76.33300097 257.99976002 -75.25 259.5 C-74.445625 260.61375 -74.445625 260.61375 -73.625 261.75 C-72 264 -70.375 266.25 -68.75 268.5 C-67.9451416 269.61435425 -67.9451416 269.61435425 -67.12402344 270.7512207 C-66.04377882 272.24703147 -64.96369993 273.74296193 -63.88378906 275.23901367 C-61.12956456 279.05412158 -58.37224197 282.86692646 -55.609375 286.67578125 C-50.64105353 293.5286632 -45.67773569 300.38587723 -40.8125 307.3125 C-40.11769531 308.29863281 -39.42289062 309.28476562 -38.70703125 310.30078125 C-35.32753831 315.64455613 -34.59335708 319.35495409 -35.40625 325.5625 C-36.39968526 329.64081319 -37.80858922 331.21600336 -41 334 C-46.4552451 337.1705698 -50.93328991 337.46775244 -57 336 C-62.59957383 332.96721581 -65.54081095 328.99586795 -69.0625 323.875 C-70.20935857 322.24720074 -71.35650194 320.61960212 -72.50390625 318.9921875 C-73.08414551 318.16170898 -73.66438477 317.33123047 -74.26220703 316.47558594 C-76.96788722 312.62118904 -79.73502626 308.81196259 -82.5 305 C-83.57849467 303.50807966 -84.65661826 302.015891 -85.734375 300.5234375 C-86.5377832 299.4111377 -86.5377832 299.4111377 -87.35742188 298.27636719 C-89.03706439 295.9486343 -90.71411185 293.61905007 -92.390625 291.2890625 C-95.09212275 287.53592002 -97.80016471 283.78762101 -100.51611328 280.04492188 C-101.48198353 278.71387067 -102.44656993 277.38188658 -103.40966797 276.04882812 C-104.6621206 274.31909815 -105.92304983 272.59597002 -107.1875 270.875 C-107.88230469 269.92367187 -108.57710937 268.97234375 -109.29296875 267.9921875 C-109.85628906 267.33476562 -110.41960937 266.67734375 -111 266 C-113.07769089 265.7653353 -113.07769089 265.7653353 -114.33984375 267.328125 C-115.13068359 268.27945313 -115.13068359 268.27945313 -115.9375 269.25 C-119.00852029 272.86371618 -122.15975822 276.38964004 -125.375 279.875 C-130.28879854 285.21553859 -135.15480079 290.59708002 -140 296 C-142.99407735 299.33871935 -145.99456297 302.67150297 -149 306 C-149.45729492 306.50917969 -149.91458984 307.01835937 -150.38574219 307.54296875 C-151.83670804 309.15710719 -153.29288133 310.76641574 -154.75 312.375 C-156.07257813 313.84066406 -156.07257813 313.84066406 -157.421875 315.3359375 C-161.86447397 319.9266231 -165.21396633 323.12414297 -171.6875 323.3125 C-172.51636719 323.34988281 -173.34523438 323.38726562 -174.19921875 323.42578125 C-179.90727966 322.55802861 -183.60482593 319.83504972 -187.03515625 315.375 C-188.05844174 313.92657494 -189.06684118 312.46755302 -190.0625 311 C-190.89104492 309.81664062 -190.89104492 309.81664062 -191.73632812 308.609375 C-193.50322542 306.08126099 -195.25131455 303.54073425 -197 301 C-198.74589642 298.4973698 -200.49712468 295.99852915 -202.24853516 293.49975586 C-203.41501539 291.83491183 -204.5800582 290.16905972 -205.74365234 288.50219727 C-209.85221056 282.6187833 -213.99864592 276.76403036 -218.1875 270.9375 C-218.72826172 270.18146484 -219.26902344 269.42542969 -219.82617188 268.64648438 C-220.58317383 267.59750977 -220.58317383 267.59750977 -221.35546875 266.52734375 C-221.79528076 265.91624756 -222.23509277 265.30515137 -222.68823242 264.67553711 C-224.01803918 262.97695833 -225.46399768 261.51137498 -227 260 C-241.9971643 274.97383923 -256.9914914 289.95051416 -271.98241425 304.93060207 C-278.94248813 311.88551216 -285.90349944 318.83947919 -292.86669922 325.79125977 C-298.93340019 331.84801644 -304.99836151 337.90650869 -311.06121016 343.96712166 C-314.27367913 347.1782831 -317.4870328 350.38854819 -320.70246887 353.59673882 C-323.7250746 356.61258833 -326.74535972 359.63074193 -329.763834 362.65072632 C-330.87562095 363.76223676 -331.98827365 364.87288198 -333.10182762 365.98262215 C-334.61490454 367.49076805 -336.1249162 369.00191572 -337.63415527 370.51390076 C-338.48220482 371.36102851 -339.33025436 372.20815626 -340.20400238 373.08095455 C-342.11388527 374.6836257 -342.11388527 374.6836257 -342 376 C-303.42540579 376.06867789 -264.85082079 376.12153477 -226.2761778 376.15319599 C-221.72130919 376.15694807 -217.1664407 376.16083104 -212.61157227 376.16479492 C-211.25139312 376.16597532 -211.25139312 376.16597532 -209.86373561 376.16717956 C-195.18431539 376.18023079 -180.50493044 376.20388309 -165.82553113 376.23145839 C-150.76129456 376.25952043 -135.69707646 376.27617795 -120.63281482 376.28226548 C-111.33857781 376.28638026 -102.0444405 376.29937301 -92.75023418 376.3237494 C-86.37544368 376.33961645 -80.00070467 376.34439816 -73.62589587 376.34050413 C-69.94885369 376.33858409 -66.27198567 376.34151187 -62.59497452 376.35761642 C-58.604305 376.37496668 -54.61400502 376.36895292 -50.62330627 376.36076355 C-49.46667357 376.36950207 -48.31004086 376.3782406 -47.11835867 376.38724393 C-40.31610325 376.34951347 -32.95940093 376.18840511 -27.41674143 371.72504205 C-21.40602517 365.17815978 -21.70879023 357.2231897 -21.73930359 348.89260864 C-21.73547804 347.78225152 -21.73165249 346.6718944 -21.72771102 345.52789009 C-21.71740204 341.81167658 -21.72136925 338.09561818 -21.7253418 334.37939453 C-21.72099416 331.7131906 -21.7158752 329.046998 -21.70985413 326.38079834 C-21.69711796 319.89295431 -21.69531209 313.40515169 -21.69765439 306.91729726 C-21.69943896 301.6424602 -21.69768493 296.3676357 -21.69342995 291.09280014 C-21.69253716 289.96577316 -21.69253716 289.96577316 -21.69162634 288.81597795 C-21.69041456 287.28949627 -21.68920043 285.76301459 -21.68798397 284.23653291 C-21.67711255 269.92752417 -21.679269 255.618539 -21.68536881 241.30952893 C-21.69053733 228.22777476 -21.67928356 215.14609507 -21.66027059 202.06435563 C-21.64088457 188.622586 -21.63263755 175.1808516 -21.63639385 161.73906791 C-21.63830477 154.1963219 -21.63582898 146.65363928 -21.62167931 139.11090469 C-21.60975477 132.68948174 -21.60837259 126.26816119 -21.62046947 119.8467368 C-21.62635077 116.57266538 -21.62584523 113.29881941 -21.61546707 110.02475357 C-21.60501274 106.4701154 -21.61309046 102.91597883 -21.6257782 99.36135864 C-21.61840391 98.33401112 -21.61102963 97.30666359 -21.60343188 96.24818432 C-21.66057166 88.62785281 -22.39996123 81.84190284 -27.6875 76.0625 C-38.62302174 69.25359024 -42.38864382 73.99990046 -50.28125 82.3046875 Z M-111 144 C-114.7091458 147.65982205 -118.41176178 151.32607848 -122.10839844 154.99853516 C-123.36767713 156.24773702 -124.62874236 157.49514056 -125.89160156 158.74072266 C-127.70326412 160.52821075 -129.50846839 162.32200227 -131.3125 164.1171875 C-131.88121826 164.67558319 -132.44993652 165.23397888 -133.03588867 165.80929565 C-134.3957465 167.16875885 -135.70341173 168.58006607 -137 170 C-137 170.66 -137 171.32 -137 172 C-131.14985962 176.16009983 -126.13462412 177.18910402 -119 176 C-112.90765323 173.52244565 -108.86296762 169.4464901 -105.75 163.6875 C-103.89628603 157.04502494 -104.79282838 152.50320259 -107.9296875 146.56640625 C-108.92744149 144.83370004 -108.92744149 144.83370004 -111 144 Z " fill="#000000" transform="translate(470,32)"/>
<path d="M0 0 C1.65523801 -0.00701996 1.65523801 -0.00701996 3.34391516 -0.01418173 C7.01876386 -0.02608902 10.69323671 -0.01669107 14.36808777 -0.00723267 C17.01167378 -0.01130014 19.65523441 -0.01653494 22.29881287 -0.02316284 C28.71875236 -0.0364637 35.1385863 -0.03363944 41.55852983 -0.02492492 C46.77564861 -0.01813731 51.99273791 -0.01723629 57.20985985 -0.02049637 C58.32552034 -0.02118592 58.32552034 -0.02118592 59.46371942 -0.0218894 C60.97482844 -0.0228486 62.48593744 -0.02382124 63.99704643 -0.02480717 C78.14620333 -0.0333496 92.29530178 -0.02354343 106.44444909 -0.00740607 C118.58357528 0.00600992 130.72261545 0.00365627 142.86174011 -0.01016235 C156.96957985 -0.02621462 171.07736854 -0.03254028 185.18521613 -0.02332556 C186.6890972 -0.02236993 188.19297827 -0.02142682 189.69685936 -0.02049637 C190.8066977 -0.01980213 190.8066977 -0.01980213 191.93895701 -0.01909386 C197.15202358 -0.01650394 202.36505773 -0.02087472 207.57811928 -0.02793503 C213.9274939 -0.03634568 220.27675725 -0.03407852 226.62611911 -0.0180928 C229.86528236 -0.01020626 233.10422157 -0.00873883 236.34338951 -0.01704025 C239.85329913 -0.02520795 243.36268271 -0.01499155 246.87255859 0 C247.89783828 -0.00669217 248.92311797 -0.01338433 249.97946674 -0.02027929 C255.97642054 0.02958736 259.71236545 0.56257058 264.16569519 4.88095093 C268.22391501 9.94054966 269.29224723 13.94053964 268.61882019 20.38095093 C266.87093358 25.07264657 264.37417371 28.0950166 260.61882019 31.38095093 C257.81526894 32.31546801 256.12754794 32.5074068 253.22991753 32.51123619 C252.32729522 32.51486054 251.42467291 32.51848489 250.49469841 32.52221906 C249.5018204 32.52115081 248.50894239 32.52008256 247.48597717 32.51898193 C246.43212393 32.52180321 245.37827069 32.52462449 244.2924825 32.52753127 C240.74353953 32.53589739 237.19462769 32.53721725 233.64567566 32.53866577 C231.10814323 32.54333256 228.57061163 32.5484759 226.03308105 32.55406189 C220.55904555 32.56535523 215.08501657 32.5738342 209.61097336 32.58018112 C200.95496847 32.59050719 192.29900197 32.61107166 183.64302063 32.63330078 C180.68128026 32.64078077 177.71953973 32.6481945 174.75779915 32.65558815 C174.01758002 32.65743872 173.27736088 32.65928928 172.51471087 32.66119593 C164.08652709 32.68212757 155.65833906 32.70095264 147.23014832 32.71884155 C146.45963639 32.72047973 145.68912446 32.72211792 144.89526369 32.72380574 C132.41791147 32.75007244 119.94055629 32.76872563 107.46318816 32.78543346 C94.64980438 32.80286811 81.83647852 32.83172944 69.02314103 32.87032282 C61.12217039 32.89369522 53.22129421 32.90771491 45.32028873 32.90965046 C39.26009063 32.91201364 33.2000398 32.92990913 27.13988304 32.95351982 C24.65710714 32.96071309 22.17431041 32.96281366 19.69152641 32.95941734 C16.29866948 32.95551787 12.9063603 32.96999361 9.51356506 32.98895264 C8.53407139 32.98342294 7.55457771 32.97789325 6.54540241 32.97219598 C-0.49240786 33.03994644 -7.46780506 33.69168192 -12.81867981 38.63095093 C-16.58471724 45.2591768 -16.6695909 51.57598465 -16.63946533 59.02172852 C-16.64314104 60.08182172 -16.64681674 61.14191493 -16.65060383 62.23413217 C-16.66056997 65.78002851 -16.65643577 69.32576761 -16.65242004 72.87167358 C-16.65680776 75.41628689 -16.66211009 77.96089876 -16.66825867 80.50550842 C-16.67975419 85.98167582 -16.68541054 91.45780061 -16.68614006 96.93397903 C-16.68746744 104.85699081 -16.70259367 112.77993217 -16.72163523 120.70291905 C-16.75245268 133.56563972 -16.77663071 146.42836217 -16.79450989 159.29110718 C-16.79558257 160.06040634 -16.79665525 160.8297055 -16.79776043 161.62231676 C-16.8095859 170.20923865 -16.81979161 178.79616125 -16.82820129 187.38308716 C-16.83127542 190.49923708 -16.83436417 193.61538698 -16.83747864 196.73153687 C-16.83824398 197.50050264 -16.83900932 198.26946841 -16.83979785 199.06173618 C-16.85287541 211.87974227 -16.87750665 224.6976972 -16.91122204 237.51566541 C-16.93151549 245.41999206 -16.94180097 253.32420933 -16.93923283 261.22856222 C-16.93807629 267.28092719 -16.95221247 273.33315554 -16.97204208 279.38549232 C-16.97765525 281.86995511 -16.97811434 284.35443554 -16.97310448 286.83889961 C-16.96699248 290.22417716 -16.97914198 293.60891055 -16.99591064 296.99414062 C-16.98969883 297.98255719 -16.98348701 298.97097375 -16.97708696 299.98934233 C-17.03048196 305.88416876 -17.6376726 309.55170912 -21.88117981 313.92782593 C-26.94077855 317.98604575 -30.94076852 319.05437796 -37.38117981 318.38095093 C-42.07287545 316.63306432 -45.09524548 314.13630445 -48.38117981 310.38095093 C-49.32850034 307.53898934 -49.50889366 305.78944921 -49.51540089 302.84425449 C-49.51985873 301.90864832 -49.52431657 300.97304216 -49.5289095 300.00908428 C-49.52872514 298.97934315 -49.52854078 297.94960202 -49.52835083 296.88865662 C-49.53202752 295.79608455 -49.53570421 294.70351248 -49.53949231 293.57783216 C-49.55055103 289.89769844 -49.55437675 286.21759294 -49.55818176 282.53744507 C-49.56444488 279.90625925 -49.57109155 277.27507433 -49.57809448 274.64389038 C-49.59786026 266.73252143 -49.60792692 258.8211512 -49.61682227 250.90976372 C-49.62120648 247.18204884 -49.62657308 243.45433539 -49.63181114 239.72662163 C-49.64882633 227.3299403 -49.66331846 214.93325985 -49.67055988 202.53656864 C-49.67246972 199.3192501 -49.67439006 196.10193156 -49.67634583 192.88461304 C-49.67707144 191.68516632 -49.67707144 191.68516632 -49.6778117 190.46148836 C-49.68610427 177.52052227 -49.71142677 164.57964886 -49.7439265 151.6387232 C-49.77703895 138.34510255 -49.79501257 125.0515289 -49.79820412 111.7578668 C-49.80036575 104.29709247 -49.80906292 96.83645313 -49.8346653 89.37571907 C-49.85642988 83.01868581 -49.86439471 76.66182032 -49.85469852 70.30475403 C-49.85016983 67.06469554 -49.85416147 63.82505309 -49.87145996 60.58502769 C-49.88921303 57.06176264 -49.88205479 53.53936458 -49.868927 50.01609802 C-49.87989625 49.00643339 -49.89086549 47.99676875 -49.90216714 46.95650822 C-49.7794056 33.23560117 -44.27142011 22.54994224 -35.06867981 12.63095093 C-25.03189188 3.13184807 -13.52546978 -0.08925387 0 0 Z " fill="#000000" transform="translate(81.38117980957031,71.61904907226563)"/>
<path d="M0 0 C4.39535965 4.68787045 8.08327826 9.93251111 11.66796875 15.25390625 C12.05412354 15.8149707 12.44027832 16.37603516 12.83813477 16.95410156 C16.34033714 22.41129776 17.01688404 27.2877389 16.23046875 33.69140625 C14.04267294 38.50455702 11.22114973 41.43942331 6.66796875 44.12890625 C0.445921 45.94407463 -4.20110224 44.9399808 -10.33203125 43.12890625 C-14.27956179 48.97771043 -18.22642197 54.82696658 -22.17285156 60.67651367 C-23.51091927 62.65968675 -24.84913136 64.64276242 -26.1875 66.62573242 C-27.48761576 68.55206413 -28.78752367 70.47853613 -30.08721924 72.40515137 C-31.36726702 74.3025499 -32.64782302 76.19960566 -33.92889404 78.09631348 C-36.76362689 82.29770189 -39.58804245 86.50442061 -42.36816406 90.7421875 C-42.8229715 91.4335228 -43.27777893 92.12485809 -43.74636841 92.83714294 C-44.56695967 94.08754027 -45.38349052 95.34061751 -46.1947937 96.59706116 C-49.44469823 101.54556245 -52.96677879 105.44628002 -58.33203125 108.12890625 C-63.56043459 108.65003796 -67.97239879 108.77164159 -72.76953125 106.50390625 C-77.62903954 101.99997174 -79.68758936 98.13076501 -80.546875 91.66796875 C-79.94469309 84.5512734 -76.18331784 79.04640559 -72.046875 73.49609375 C-67.29148372 66.93645066 -62.71828522 60.28577629 -58.2734375 53.51171875 C-57.67075043 52.59436951 -57.06806335 51.67702026 -56.44711304 50.73187256 C-54.59399123 47.90735799 -52.74390679 45.08087488 -50.89453125 42.25390625 C-46.64923905 35.7703298 -42.39592381 29.29229218 -38.11798096 22.8302002 C-36.91757835 21.01456099 -35.72048366 19.19673084 -34.52655029 17.37683105 C-32.79483872 14.74206737 -31.04795354 12.11801344 -29.296875 9.49609375 C-28.78330948 8.70872833 -28.26974396 7.92136292 -27.74061584 7.11013794 C-24.21842305 1.88378855 -20.98772736 -1.77992385 -14.75390625 -3.640625 C-9.19378838 -4.16973299 -4.45436493 -3.57393769 0 0 Z " fill="#000000" transform="translate(208.33203125,184.87109375)"/>
</svg>
